# Blender v2.70 (sub 0) OBJ File: 'blue_gem.blend'
# www.blender.org
mtllib gem.mtl
o novice4__0
v 0.092585 0.194303 -0.223521
v 0.000000 0.000000 0.000000
v -0.092585 0.194303 -0.223521
v 0.000000 0.249181 -0.286650
v -0.223521 0.194303 -0.092585
v -0.275050 0.338135 -0.275051
v -0.275050 0.350923 -0.275051
v -0.348750 0.338111 0.000000
v -0.348750 0.350923 0.000000
v 0.000000 0.350923 -0.348750
v 0.000000 0.338111 -0.348750
v 0.275050 0.350923 -0.275051
v 0.275050 0.338135 -0.275051
v 0.223521 0.194304 -0.092585
v 0.348750 0.350923 0.000000
v 0.348750 0.338111 0.000000
v 0.286650 0.249181 0.000000
v 0.223521 0.194304 0.092586
v 0.092585 0.194303 0.223521
v 0.275050 0.338135 0.275051
v -0.223521 0.194303 0.092586
v -0.092585 0.194303 0.223521
v -0.275050 0.338135 0.275051
v 0.000000 0.249181 0.286650
v 0.000000 0.338111 0.348750
v -0.286650 0.249181 0.000000
v -0.131881 0.438331 -0.228465
v 0.131882 0.438331 -0.228465
v 0.275050 0.350923 0.275051
v 0.000000 0.350923 0.348750
v -0.275050 0.350923 0.275051
v -0.228465 0.438331 -0.131881
v 0.228465 0.438331 -0.131882
v -0.228465 0.438331 0.131882
v 0.151023 0.465253 -0.150876
v -0.150875 0.465254 -0.151022
v 0.000200 0.465244 -0.191421
v 0.228465 0.438331 0.131882
v -0.131882 0.438330 0.228466
v 0.131882 0.438330 0.228466
v -0.191420 0.465244 0.000201
v 0.191421 0.465244 0.000200
v 0.150875 0.465253 0.151022
v -0.000200 0.465244 0.191421
v -0.151036 0.465249 0.150872
vt 0.000000 1.000000
vt 0.245363 0.738417
vt 0.349307 0.999900
vt 0.000100 0.768975
vt 0.579932 0.838545
vt 0.767315 0.999293
vt 0.000320 0.349511
vt 0.161314 0.581403
vt 0.736934 0.754426
vt 0.998802 0.651194
vt 0.262780 0.245561
vt 0.232404 0.000100
vt 0.628562 0.740654
vt 0.258898 0.630388
vt 0.428620 0.737392
vt 0.837916 0.420233
vt 0.998802 0.233157
vt 0.651060 0.001182
vt 0.419715 0.161355
vt 0.753755 0.263251
vt 0.910169 0.499580
vt 0.999899 0.785366
vt 0.823597 0.823295
vt 0.785348 0.999897
vt 0.499561 0.910165
vt 0.823298 0.176401
vt 0.999900 0.214641
vt 0.737003 0.571832
vt 0.499581 0.089831
vt 0.785369 0.000102
vt 0.739921 0.371464
vt 0.571264 0.263548
vt 0.370917 0.258931
vt 0.214624 0.999897
vt 0.176712 0.823625
vt 0.000102 0.785359
vt 0.089832 0.500419
vt 0.000100 0.214631
vt 0.176405 0.176704
vt 0.214642 0.000100
vt 0.264394 0.429033
vn 0.000006 -0.754710 -0.656059
vn -0.463901 -0.754710 -0.463906
vn -0.965925 0.000000 -0.258821
vn -0.258819 0.000000 -0.965926
vn -0.214606 -0.559150 -0.800809
vn 0.258819 0.000000 -0.965926
vn 0.463907 -0.754710 -0.463900
vn 0.214606 -0.559150 -0.800809
vn 0.965925 0.000000 -0.258821
vn 0.800807 -0.559152 -0.214609
vn 0.656059 -0.754710 -0.000002
vn 0.463904 -0.754710 0.463903
vn 0.800808 -0.559151 0.214608
vn -0.463906 -0.754710 0.463901
vn 0.214606 -0.559150 0.800809
vn -0.000006 -0.754710 0.656059
vn -0.800810 -0.559148 -0.214607
vn -0.214616 -0.559187 0.800781
vn -0.656059 -0.754710 0.000006
vn -0.800780 -0.559187 0.214618
vn -0.188700 0.684422 -0.704243
vn 0.188701 0.684421 -0.704244
vn 0.965925 0.000000 0.258821
vn 0.258818 0.000000 0.965926
vn -0.258818 0.000000 0.965926
vn -0.965925 0.000000 0.258821
vn -0.704244 0.684420 -0.188702
vn 0.704246 0.684419 -0.188703
vn -0.704246 0.684419 0.188703
vn 0.385971 0.837894 -0.385953
vn -0.385957 0.837894 -0.385966
vn 0.000000 0.809029 -0.587769
vn 0.704246 0.684419 0.188703
vn -0.188701 0.684421 0.704245
vn 0.188701 0.684420 0.704245
vn -0.587855 0.808966 0.000000
vn -0.092778 0.933197 -0.347181
vn -0.346779 0.933333 -0.092915
vn 0.093179 0.933291 -0.346822
vn 0.587770 0.809028 0.000000
vn 0.347174 0.933200 -0.092779
vn 0.385944 0.837896 0.385975
vn 0.000000 0.809025 0.587774
vn -0.385966 0.837894 0.385959
vn -0.347227 0.933155 0.093036
vn -0.093195 0.933302 0.346787
vn 0.092783 0.933199 0.347177
vn 0.346818 0.933293 0.093180
vn -0.000013 1.000000 0.000173
vn -0.000013 1.000000 -0.000062
vn 0.000000 1.000000 0.000060
vn 0.000003 1.000000 -0.000233
vn -0.000007 -0.754710 -0.656059
vn -0.463906 -0.754710 -0.463901
vn -0.965926 0.000000 -0.258820
vn -0.258817 0.000000 -0.965926
vn -0.214616 -0.559186 -0.800781
vn 0.258817 0.000000 -0.965926
vn 0.463906 -0.754710 -0.463901
vn 0.214616 -0.559186 -0.800781
vn 0.965926 0.000000 -0.258820
vn 0.800780 -0.559187 -0.214618
vn 0.656059 -0.754710 0.000002
vn 0.463906 -0.754710 0.463901
vn 0.800780 -0.559187 0.214618
vn -0.463898 -0.754710 0.463909
vn 0.214616 -0.559187 0.800781
vn 0.000006 -0.754710 0.656059
vn -0.800780 -0.559187 -0.214618
vn -0.214605 -0.559150 0.800809
vn -0.656059 -0.754710 -0.000007
vn -0.800811 -0.559147 0.214606
vn 0.965926 0.000000 0.258820
vn 0.258817 0.000000 0.965926
vn -0.258817 0.000000 0.965926
vn -0.965926 0.000000 0.258820
vn 0.385952 0.837894 -0.385971
vn -0.385967 0.837894 -0.385957
vn 0.000000 0.808966 -0.587855
vn -0.587759 0.809036 0.000000
vn 0.587855 0.808966 0.000000
vn 0.385970 0.837896 0.385949
vn 0.000000 0.808967 0.587854
vn -0.385954 0.837894 0.385971
vn -0.000000 1.000000 -0.000034
vn 0.000003 1.000000 0.000067
usemtl Material.001
s off
f 2/1/1 3/1/1 4/1/1
f 2/1/2 5/1/2 6/1/2
f 7/1/3 6/1/3 8/1/3
f 11/1/4 6/1/4 7/1/4
f 4/1/5 3/1/5 6/1/5
f 12/1/6 13/1/6 11/1/6
f 13/1/7 14/1/7 2/1/7
f 13/1/8 1/1/8 4/1/8
f 16/1/9 13/1/9 12/1/9
f 17/1/10 14/1/10 13/1/10
f 2/1/11 14/1/11 17/1/11
f 2/1/12 18/1/12 20/1/12
f 20/1/13 18/1/13 17/1/13
f 2/1/14 22/1/14 23/1/14
f 24/1/15 19/1/15 20/1/15
f 2/1/16 19/1/16 24/1/16
f 6/1/17 5/1/17 26/1/17
f 24/1/18 25/1/18 23/1/18
f 26/1/19 5/1/19 2/1/19
f 23/1/20 8/1/20 26/1/20
f 27/2/21 10/3/21 7/4/21
f 10/3/22 28/5/22 12/6/22
f 29/1/23 20/1/23 16/1/23
f 25/1/24 20/1/24 29/1/24
f 31/1/25 23/1/25 25/1/25
f 8/1/26 23/1/26 31/1/26
f 9/7/27 32/8/27 7/4/27
f 33/9/28 15/10/28 12/6/28
f 34/11/29 9/7/29 31/12/29
f 12/6/30 28/5/30 35/13/30
f 7/4/31 32/8/31 36/14/31
f 27/2/32 37/15/32 28/5/32
f 15/10/33 38/16/33 29/17/33
f 30/18/34 39/19/34 31/12/34
f 40/20/35 30/18/35 29/17/35
f 32/8/36 9/7/36 34/11/36
f 37/21/37 27/22/37 36/23/37
f 36/23/38 32/24/38 41/25/38
f 35/26/39 28/27/39 37/21/39
f 33/9/40 42/28/40 38/16/40
f 42/29/41 33/30/41 35/26/41
f 29/17/42 38/16/42 43/31/42
f 40/20/43 44/32/43 39/19/43
f 31/12/44 39/19/44 45/33/44
f 41/25/45 34/34/45 45/35/45
f 45/35/46 39/36/46 44/37/46
f 44/37/47 40/38/47 43/39/47
f 43/39/48 38/40/48 42/29/48
f 44/37/49 43/39/49 45/35/49
f 45/35/50 43/39/50 42/29/50
f 41/25/51 42/29/51 35/26/51
f 36/23/52 35/26/52 37/21/52
f 1/1/53 2/1/53 4/1/53
f 3/1/54 2/1/54 6/1/54
f 9/1/55 7/1/55 8/1/55
f 10/1/56 11/1/56 7/1/56
f 11/1/57 4/1/57 6/1/57
f 10/1/58 12/1/58 11/1/58
f 1/1/59 13/1/59 2/1/59
f 11/1/60 13/1/60 4/1/60
f 15/1/61 16/1/61 12/1/61
f 16/1/62 17/1/62 13/1/62
f 18/1/63 2/1/63 17/1/63
f 19/1/64 2/1/64 20/1/64
f 16/1/65 20/1/65 17/1/65
f 21/1/66 2/1/66 23/1/66
f 25/1/67 24/1/67 20/1/67
f 22/1/68 2/1/68 24/1/68
f 8/1/69 6/1/69 26/1/69
f 22/1/70 24/1/70 23/1/70
f 21/1/71 26/1/71 2/1/71
f 21/1/72 23/1/72 26/1/72
f 15/1/73 29/1/73 16/1/73
f 30/1/74 25/1/74 29/1/74
f 30/1/75 31/1/75 25/1/75
f 9/1/76 8/1/76 31/1/76
f 33/9/77 12/6/77 35/13/77
f 27/2/78 7/4/78 36/14/78
f 10/3/79 27/2/79 28/5/79
f 41/41/80 32/8/80 34/11/80
f 15/10/81 33/9/81 38/16/81
f 40/20/82 29/17/82 43/31/82
f 30/18/83 40/20/83 39/19/83
f 34/11/84 31/12/84 45/33/84
f 41/25/85 45/35/85 42/29/85
f 36/23/86 41/25/86 35/26/86
